<?xml version="1.0" standalone="no"?>
<!DOCTYPE svg PUBLIC "-//W3C//DTD SVG 20010904//EN"
 "http://www.w3.org/TR/2001/REC-SVG-20010904/DTD/svg10.dtd">
<svg version="1.0" xmlns="http://www.w3.org/2000/svg"
 width="900.000000pt" height="900.000000pt" viewBox="0 0 900.000000 900.000000"
 preserveAspectRatio="xMidYMid meet">

<g transform="translate(0.000000,900.000000) scale(0.100000,-0.100000)"
fill="#000000" stroke="none">
<path d="M2270 7203 l0 -473 53 -1 c96 0 251 -28 320 -57 16 -7 37 -12 47 -12
10 0 21 -4 24 -9 3 -5 18 -12 33 -16 45 -11 151 -65 181 -92 7 -7 20 -13 28
-13 8 0 14 -5 14 -11 0 -5 13 -15 29 -20 16 -6 32 -17 35 -25 3 -8 10 -14 16
-14 12 0 240 -226 240 -238 0 -4 9 -15 20 -25 11 -9 20 -23 20 -31 0 -8 6 -19
13 -23 6 -4 23 -29 37 -55 13 -27 28 -48 31 -48 4 0 10 -12 14 -27 3 -15 10
-30 13 -33 4 -3 18 -39 31 -80 13 -41 30 -88 37 -105 20 -49 37 -143 44 -250
5 -55 8 -101 9 -102 1 -2 213 -3 471 -3 l470 0 0 74 c0 41 -4 77 -8 80 -5 3
-12 54 -15 113 -3 59 -11 122 -16 138 -9 28 -17 62 -41 174 -6 24 -14 49 -19
55 -5 6 -11 32 -15 57 -4 26 -13 55 -21 65 -8 11 -15 27 -15 37 0 9 -4 25 -10
35 -17 31 -50 111 -50 121 0 6 -4 11 -9 11 -4 0 -14 20 -21 45 -7 25 -16 45
-21 45 -5 0 -11 11 -15 25 -3 14 -10 23 -14 20 -5 -3 -11 8 -15 25 -4 16 -10
30 -14 30 -4 0 -13 16 -21 35 -7 19 -17 32 -22 29 -4 -3 -8 2 -8 11 0 8 -7 18
-15 21 -8 4 -15 12 -15 19 0 11 -20 39 -53 75 -8 8 -17 24 -21 36 -3 11 -18
27 -31 34 -14 7 -25 19 -25 26 0 18 -245 264 -263 264 -7 0 -20 11 -27 25 -7
13 -26 29 -41 34 -16 5 -29 15 -29 20 0 6 -11 13 -24 17 -13 3 -29 16 -36 30
-8 13 -19 24 -26 24 -7 0 -19 6 -26 13 -7 7 -28 20 -45 28 -18 7 -33 17 -33
21 0 5 -6 8 -13 8 -8 0 -24 9 -37 20 -13 11 -29 20 -37 20 -7 0 -13 4 -13 10
0 5 -11 12 -25 16 -14 3 -25 10 -25 14 0 4 -12 11 -27 15 -16 3 -48 15 -73 26
-84 38 -155 65 -208 79 -20 5 -62 17 -92 26 -137 40 -247 63 -315 63 -28 1
-55 5 -60 10 -6 5 -58 11 -117 13 l-108 4 0 -473z"/>
<path d="M4510 7204 l0 -471 113 -11 c118 -11 229 -31 237 -43 3 -3 21 -10 40
-14 19 -4 44 -14 55 -21 11 -8 26 -14 34 -14 14 0 102 -40 111 -51 3 -4 15 -9
28 -13 12 -4 22 -12 22 -17 0 -5 5 -9 11 -9 6 0 25 -11 43 -25 18 -14 36 -25
41 -25 4 0 25 -18 46 -40 22 -22 39 -36 39 -31 0 11 99 -87 150 -149 19 -23
45 -54 58 -69 13 -14 30 -39 39 -56 9 -16 19 -32 22 -35 3 -3 26 -43 49 -90
41 -80 92 -228 92 -268 0 -10 4 -22 10 -28 5 -5 14 -50 19 -99 6 -50 12 -99
15 -110 2 -11 4 -32 5 -47 l1 -28 470 0 471 0 -7 128 c-4 70 -10 132 -14 137
-4 6 -10 48 -14 95 -4 46 -11 87 -15 90 -5 3 -11 31 -15 63 -4 31 -11 57 -14
57 -4 0 -13 30 -20 68 -7 37 -17 69 -22 70 -6 2 -10 13 -10 23 0 18 -10 44
-50 134 -5 11 -19 43 -31 70 -36 84 -53 120 -59 125 -3 3 -18 30 -34 60 -48
94 -61 115 -73 123 -7 4 -13 15 -13 23 0 8 -4 12 -10 9 -5 -3 -10 1 -10 10 0
8 -7 18 -15 21 -8 4 -15 12 -15 18 0 7 -9 22 -20 34 -11 12 -20 24 -20 27 0
11 -264 285 -275 285 -4 0 -26 20 -49 44 -24 24 -52 47 -64 50 -11 4 -23 13
-26 21 -3 8 -12 15 -20 15 -7 0 -16 7 -20 15 -3 8 -12 15 -21 15 -8 0 -15 4
-15 10 0 5 -11 12 -25 16 -14 3 -25 10 -25 15 0 5 -11 14 -25 19 -14 5 -25 14
-25 19 0 5 -14 12 -30 16 -17 4 -28 10 -25 15 3 4 -6 11 -20 14 -14 4 -25 10
-25 15 0 5 -13 12 -30 16 -16 4 -30 11 -30 16 0 5 -7 9 -15 9 -8 0 -37 9 -63
21 -165 74 -176 78 -220 85 -24 4 -45 10 -47 15 -3 4 -26 11 -50 15 -25 3 -48
10 -50 14 -3 5 -31 12 -63 16 -31 3 -62 11 -69 16 -6 5 -51 12 -100 15 -48 3
-90 9 -93 13 -3 5 -53 10 -112 12 l-108 3 0 -471z"/>
<path d="M2270 4971 l0 -471 90 0 c50 0 90 -4 90 -9 0 -5 32 -12 70 -16 39 -4
70 -11 70 -15 0 -5 20 -12 45 -16 25 -3 45 -10 45 -14 0 -4 16 -11 35 -14 19
-4 35 -10 35 -15 0 -4 23 -13 50 -20 28 -7 50 -17 50 -22 0 -5 6 -9 13 -9 8 0
24 -9 37 -20 13 -11 27 -20 32 -20 5 0 14 -5 21 -10 45 -38 61 -50 67 -50 4 0
18 -9 31 -20 13 -11 39 -33 57 -48 45 -36 80 -72 122 -122 19 -23 43 -49 53
-58 9 -9 17 -22 17 -29 0 -7 4 -13 8 -13 5 0 15 -12 23 -27 8 -16 19 -33 24
-40 6 -7 15 -19 22 -27 7 -8 15 -26 19 -40 3 -14 10 -26 14 -26 5 0 11 -13 15
-30 4 -16 10 -30 15 -30 4 0 13 -22 20 -50 7 -27 15 -50 20 -50 4 0 10 -18 14
-40 3 -23 10 -49 15 -58 18 -35 41 -159 41 -217 0 -33 3 -70 6 -82 l6 -23 470
0 470 0 -6 68 c-15 199 -26 296 -32 311 -4 9 -13 43 -20 76 -20 99 -36 159
-44 170 -4 6 -10 28 -14 50 -7 40 -20 77 -61 170 -13 28 -26 60 -29 73 -4 12
-11 22 -15 22 -5 0 -11 18 -15 40 -3 23 -13 43 -21 46 -7 3 -17 19 -20 35 -4
16 -10 29 -15 29 -4 0 -11 11 -14 25 -4 14 -10 25 -15 25 -5 0 -14 14 -21 30
-7 17 -16 30 -21 30 -4 0 -11 10 -15 22 -7 23 -14 33 -56 79 -16 16 -28 34
-28 38 0 9 -37 54 -97 117 -18 19 -33 37 -33 40 0 4 -25 31 -55 61 -30 30 -55
59 -55 63 0 5 -9 12 -20 15 -12 4 -36 21 -54 38 -60 59 -108 97 -121 97 -7 0
-15 7 -19 15 -3 8 -12 15 -21 15 -8 0 -15 4 -15 10 0 5 -21 22 -47 37 -27 15
-49 31 -51 35 -2 4 -9 8 -16 8 -7 0 -23 9 -36 20 -13 11 -29 20 -37 20 -7 0
-13 4 -13 10 0 5 -11 12 -25 16 -14 3 -25 10 -25 14 0 4 -20 13 -45 20 -25 7
-45 16 -45 21 0 5 -11 11 -25 15 -14 3 -25 10 -25 15 0 4 -16 11 -35 15 -19 3
-35 10 -35 15 0 5 -10 9 -22 9 -13 1 -41 9 -63 20 -22 11 -49 19 -61 20 -11 0
-52 9 -90 20 -157 47 -276 67 -451 76 l-133 6 0 -471z"/>
<path d="M4510 4970 l0 -470 78 0 c43 0 82 -3 86 -7 4 -5 38 -13 74 -20 76
-13 155 -35 162 -44 3 -4 20 -10 38 -14 17 -3 32 -10 32 -14 0 -4 23 -13 50
-20 28 -7 50 -17 50 -22 0 -5 11 -11 25 -15 14 -3 25 -10 25 -15 0 -5 6 -9 13
-9 8 0 25 -9 38 -20 13 -11 29 -24 35 -28 5 -5 20 -15 33 -21 12 -7 31 -20 41
-29 10 -9 37 -33 60 -52 65 -53 173 -169 194 -207 5 -10 12 -20 15 -23 3 -3
13 -18 21 -35 8 -16 17 -32 20 -35 22 -21 99 -182 106 -220 4 -19 11 -40 15
-46 11 -13 27 -83 40 -174 6 -36 15 -98 22 -137 l11 -73 468 0 469 0 -7 128
c-4 70 -10 129 -14 132 -4 3 -10 43 -14 90 -4 46 -11 87 -15 90 -5 3 -12 33
-16 68 -4 34 -11 62 -15 62 -4 0 -11 22 -15 49 -4 26 -13 61 -21 76 -8 15 -14
32 -14 37 0 6 -7 26 -16 46 -8 21 -21 51 -28 67 -25 57 -57 130 -65 145 -41
79 -96 178 -107 191 -8 8 -14 21 -14 27 0 7 -4 12 -10 12 -5 0 -10 6 -10 14 0
14 -50 72 -51 59 0 -4 -9 12 -19 37 -10 25 -19 42 -19 38 -1 -10 -71 61 -71
72 0 18 -300 306 -334 320 -7 3 -19 11 -27 18 -43 38 -63 52 -76 52 -7 0 -13
4 -13 10 0 5 -15 16 -32 25 -37 17 -66 34 -86 53 -7 6 -20 12 -28 12 -8 0 -14
4 -14 9 0 5 -10 13 -22 17 -12 3 -28 13 -35 20 -8 7 -29 16 -48 20 -19 3 -33
10 -30 14 3 4 -11 11 -30 14 -19 4 -35 11 -35 16 0 5 -16 12 -35 16 -19 3 -33
10 -30 14 3 5 -15 12 -40 15 -25 4 -45 11 -45 15 0 4 -26 12 -57 19 -32 7 -67
16 -78 20 -11 5 -56 16 -100 25 -44 9 -101 22 -127 27 -43 10 -252 28 -325 29
l-33 0 0 -470z"/>
<path d="M2270 2435 l0 -485 61 0 c42 0 65 5 73 15 10 12 16 12 51 -5 88 -41
224 -33 300 17 50 34 95 80 95 98 0 7 5 15 12 17 6 2 13 11 14 19 2 7 10 34
20 59 17 49 14 172 -6 178 -5 2 -10 10 -10 19 0 24 -49 100 -81 125 -17 13
-37 29 -44 36 -8 7 -28 15 -44 18 -17 4 -31 10 -31 15 0 5 -40 9 -90 9 -49 0
-90 -4 -90 -9 0 -5 -16 -12 -35 -15 -19 -4 -35 -11 -35 -16 0 -6 -7 -10 -15
-10 -13 0 -15 29 -15 200 l0 200 -65 0 -65 0 0 -485z m411 -27 c5 -9 19 -18
32 -22 29 -7 47 -59 47 -133 0 -87 -31 -145 -85 -159 -14 -3 -25 -10 -25 -15
0 -5 -29 -9 -65 -9 -37 0 -65 4 -65 10 0 6 -6 10 -12 10 -7 0 -24 12 -37 25
-13 14 -27 25 -32 25 -5 0 -11 11 -15 25 -3 14 -10 25 -15 25 -15 0 -10 99 7
133 18 35 68 84 99 98 34 15 155 6 166 -13z"/>
<path d="M5420 2435 l0 -485 70 0 c40 0 70 4 70 10 0 15 23 12 61 -7 25 -12
62 -17 149 -17 l115 -1 0 65 0 65 -107 3 c-60 1 -108 7 -108 11 0 5 -11 12
-25 15 -55 14 -89 82 -86 169 2 53 24 117 40 117 6 0 21 10 33 22 20 20 36 23
138 28 l115 5 3 68 3 67 -121 0 c-66 0 -120 -4 -120 -9 0 -5 -16 -12 -35 -15
-19 -4 -35 -11 -35 -16 0 -6 -4 -10 -10 -10 -6 0 -10 73 -10 200 l0 200 -70 0
-70 0 0 -485z"/>
<path d="M6070 2460 l0 -300 70 0 70 0 0 300 0 300 -70 0 -70 0 0 -300z"/>
<path d="M6412 2450 c2 -215 6 -313 14 -318 6 -4 15 -18 19 -31 8 -26 11 -31
48 -71 43 -46 119 -84 190 -94 l47 -7 0 70 0 71 -36 0 c-21 0 -33 4 -29 10 3
6 -2 10 -12 10 -10 0 -29 12 -42 25 -13 14 -26 25 -30 25 -4 0 -15 18 -24 39
-14 31 -17 62 -15 143 l3 103 93 3 92 3 0 69 0 70 -95 0 -95 0 0 95 0 95 -65
0 -66 0 3 -310z"/>
<path d="M3328 2572 c-21 -2 -38 -7 -38 -11 0 -5 -16 -11 -35 -14 -37 -6 -38
-7 -105 -70 -81 -76 -115 -188 -89 -301 7 -31 15 -56 19 -56 4 0 13 -18 20
-40 7 -22 16 -40 19 -40 4 0 21 -14 39 -30 59 -54 117 -74 212 -73 65 0 97 5
133 21 41 18 49 19 53 7 5 -11 23 -15 70 -15 l64 0 0 178 c0 172 -9 249 -28
261 -5 3 -12 16 -16 29 -4 12 -12 22 -17 22 -5 0 -9 7 -9 15 0 8 -10 20 -22
26 -13 7 -38 25 -56 40 -18 16 -43 29 -57 29 -13 0 -25 4 -27 9 -4 10 -78 17
-130 13z m144 -172 c12 -11 28 -20 35 -20 7 0 13 -6 13 -14 0 -7 6 -19 14 -25
19 -16 28 -73 20 -126 -7 -48 -52 -107 -92 -119 -12 -4 -22 -12 -22 -17 0 -5
-32 -9 -71 -9 -44 0 -68 4 -64 10 3 6 0 10 -8 10 -8 0 -27 11 -43 25 -16 14
-32 25 -36 25 -3 0 -11 23 -17 52 -13 59 -5 132 15 153 8 7 14 18 14 23 0 13
62 49 103 60 43 11 112 -3 139 -28z"/>
<path d="M4892 2572 c-23 -2 -40 -7 -37 -11 2 -5 -13 -11 -35 -15 -22 -3 -40
-11 -40 -16 0 -6 -5 -10 -11 -10 -24 0 -114 -107 -132 -156 -32 -89 -16 -235
30 -282 7 -7 13 -20 13 -28 0 -8 4 -14 9 -14 5 0 22 -13 37 -29 16 -16 52 -39
79 -52 68 -31 198 -32 267 -2 25 12 49 19 52 15 3 -3 6 -37 6 -76 0 -121 -59
-205 -155 -221 -45 -7 -128 8 -133 24 -2 6 -10 11 -18 11 -8 0 -14 4 -14 8 0
5 -9 19 -20 32 -11 13 -20 34 -20 47 0 14 -4 21 -10 18 -6 -4 -10 5 -10 19 0
25 -2 26 -65 26 l-65 0 0 -36 c0 -67 31 -131 99 -202 l64 -67 146 -3 c136 -3
148 -2 170 17 13 12 28 21 32 21 14 0 79 70 66 70 -7 0 -5 5 4 10 9 5 20 22
24 37 3 15 12 31 18 35 17 11 17 620 0 625 -7 3 -17 20 -23 39 -6 19 -16 34
-21 34 -5 0 -9 7 -9 15 0 8 -10 20 -22 26 -21 11 -34 21 -62 46 -8 7 -27 15
-42 19 -16 4 -31 10 -34 14 -7 10 -86 17 -138 12z m159 -174 c25 -16 41 -39
57 -79 27 -68 27 -72 4 -129 -20 -53 -51 -87 -87 -96 -14 -3 -25 -10 -25 -15
0 -12 -118 -11 -133 1 -52 44 -73 60 -79 60 -4 0 -11 18 -14 40 -4 22 -10 40
-15 40 -5 0 -9 16 -9 35 0 19 4 35 9 35 5 0 11 14 15 30 6 33 26 58 69 85 60
38 145 36 208 -7z"/>
<path d="M4090 2560 c0 -5 -9 -10 -19 -10 -11 0 -27 -8 -37 -17 -12 -12 -38
-19 -87 -21 -40 -3 -77 -10 -84 -18 -18 -18 -19 -514 -1 -532 7 -7 38 -12 69
-12 l57 0 4 178 c5 157 8 181 27 217 25 47 79 82 137 91 44 6 114 -10 114 -27
0 -5 11 -11 25 -15 14 -3 25 -10 25 -14 0 -5 8 -16 18 -26 15 -15 17 -43 20
-211 l3 -193 70 0 69 0 0 185 c0 102 -4 193 -9 203 -4 9 -17 35 -27 57 -16 34
-63 86 -119 133 -9 7 -31 16 -50 19 -19 3 -32 9 -29 14 3 5 -36 9 -85 9 -54 0
-91 -4 -91 -10z"/>
<path d="M6070 2020 l0 -70 70 0 70 0 0 70 0 70 -70 0 -70 0 0 -70z"/>
</g>
</svg>
